<svg xmlns="http://www.w3.org/2000/svg" width="130" height="129" viewBox="0 0 130 129">
  <g fill="none" fill-rule="evenodd">
    <path fill="#FFFFFF" d="M7.87874713 119.6184C7.60231034 120.0774 7.60231034 120.7569 7.60231034 121.3464L7.60231034 126.2724C7.60231034 126.8619 7.60231034 127.5429 7.87874713 127.9749L6.38449425 128.0514 6.43529885 127.1889C6.43529885 127.1484 6.40989655 127.1364 6.37254023 127.1364 6.34713793 127.1364 6.29633333 127.2144 6.22012644 127.2804 5.73150575 127.7124 4.96495402 128.1849 3.79794253 128.1849 2.33955172 128.1849 1.37277011 127.5699 1.33541379 125.9589L1.33541379 121.3464C1.33541379 120.7569 1.33541379 120.0774 1.05897701 119.6184L2.74150575 119.6184C2.46656322 120.0774 2.46656322 120.7569 2.46656322 121.3464L2.46656322 125.1729C2.50391954 126.5739 3.0567931 127.4244 4.47633333 127.4244 5.93173563 127.4244 6.38449425 126.4689 6.42185057 124.9089 6.43529885 124.4109 6.47265517 123.9009 6.47265517 123.4044L6.47265517 121.3464C6.47265517 120.7569 6.47265517 120.0774 6.19472414 119.6184L7.87874713 119.6184zM9.41857471 127.9737C9.85788506 126.8997 9.85788506 125.3037 9.85788506 124.1502L9.85788506 121.3602C9.85788506 120.7197 9.83397701 120.0117 9.45742529 119.6187L10.7245517 119.6187C10.9651264 119.6187 11.0771954 119.6187 11.2296092 119.8287 11.4911034 120.1947 12.2950115 121.5957 12.6850115 122.1732L15.1834023 125.8542C15.2715632 125.9847 15.3731724 126.1677 15.4463908 126.1677 15.5345517 126.1677 15.5345517 126.0357 15.5345517 125.9187L15.5345517 121.2957C15.5345517 120.4062 15.4105287 119.9592 15.2342069 119.6187L16.5401839 119.6187C16.2398391 120.2217 16.1636322 120.9027 16.1636322 121.5702L16.1636322 126.8097C16.1636322 127.2402 16.1770805 127.6347 16.1890345 128.0277L15.2969655 128.0277 10.7021379 121.2027C10.6498391 121.1262 10.6124828 121.0587 10.5616782 121.0587 10.5108736 121.0587 10.4869655 121.1382 10.4869655 121.2552L10.4869655 124.6212C10.4869655 125.6712 10.4615632 126.9927 10.8635172 127.9737L9.41857471 127.9737zM18.4834598 121.33395C18.4834598 120.74445 18.4834598 120.06645 18.2085172 119.61795L19.8895517 119.61795C19.6146092 120.06645 19.6146092 120.74445 19.6146092 121.33395L19.6146092 126.25995C19.6146092 126.84945 19.6146092 127.53045 19.8895517 127.97445L18.2085172 127.97445C18.4834598 127.53045 18.4834598 126.84945 18.4834598 126.25995L18.4834598 121.33395zM23.6927241 128.02695L23.5044483 127.35945C22.9142184 125.26545 22.0355977 122.04195 21.1435287 120.06345L20.9432989 119.61795 22.061 119.61795C22.3120345 119.61795 22.3747931 119.91945 22.4375517 120.11745 23.0905402 122.14695 23.8182414 124.16145 24.3457126 126.23295 24.4084713 126.48195 24.4727241 126.61245 24.5474368 126.61245 24.6221494 126.61245 24.6983563 126.40395 24.7611149 126.20745 25.1257126 125.05245 26.6573218 121.32195 26.6573218 120.09045 26.6573218 119.91945 26.6319195 119.76045 26.5945632 119.61795L28.1515747 119.61795 27.9259425 120.03945C26.7335287 122.26695 25.7652529 124.91145 24.9120345 127.31895L24.6595057 128.02695 23.6927241 128.02695zM30.4974023 127.45035L31.9423448 127.45035C32.7208506 127.45035 33.5232644 127.25535 34.1149885 126.70185L33.8878621 127.90935C33.5486667 127.93485 33.1347586 127.97535 32.6834943 127.97535L29.053954 127.97535C29.3288966 127.52985 29.3662529 126.84885 29.3662529 126.25935L29.3662529 121.33335C29.3662529 120.74535 29.3662529 120.06585 29.0898161 119.61885L33.473954 119.61885 33.5232644 120.62535C33.0854483 120.23385 32.4070575 120.13935 31.665908 120.13935L30.4974023 120.13935 30.4974023 123.27135C31.4641839 123.27135 32.4832644 123.27135 33.450046 123.17985 33.0092414 123.92985 31.5897011 123.92985 30.8111954 123.92985L30.4974023 123.92985 30.4974023 127.45035zM36.8866782 123.3894C37.0764483 123.4164 37.2617356 123.4284 37.453 123.4284 38.6708161 123.4284 39.3372529 122.7489 39.3372529 121.5039 39.3372529 120.1944 38.6215057 120.0369 37.5023103 120.0114L36.9120805 120.0114C36.8986322 120.2094 36.8866782 120.4314 36.8866782 120.6399L36.8866782 123.3894zM40.7941494 126.7569C41.1572529 127.2669 41.3335747 127.4769 41.8475977 127.9734L40.8180575 127.9734C40.2786322 127.9734 40.0395517 127.6734 39.7631149 127.2534L38.2300115 124.9764C37.7040345 124.1904 37.6158736 123.9684 36.8866782 123.9009L36.8866782 126.2574C36.8866782 126.8484 36.8866782 127.5294 37.1646092 127.9734L35.4178276 127.9734C35.7824253 127.3719 35.757023 126.7449 35.757023 126.1794L35.757023 121.3344C35.757023 120.7449 35.757023 120.0639 35.4805862 119.6184 36.5355287 119.6184 37.5411609 119.4894 38.5198966 119.4894 39.8004713 119.4894 40.4684023 120.2214 40.4684023 121.2429 40.4684023 122.4474 39.5105862 123.2334 38.6080575 123.6114L40.7941494 126.7569zM42.2600115 126.3384C42.6365632 126.8889 43.1759885 127.6599 44.4954138 127.6599 45.4487471 127.6599 46.1659885 127.0704 46.1659885 126.0219 46.1659885 123.8229 42.5738046 124.0959 42.5738046 121.6749 42.5738046 120.1569 43.7662184 119.4084 45.099092 119.4084 45.7505862 119.4084 46.3901264 119.4894 47.0311609 119.4894L47.0311609 120.7059C46.4663333 120.0894 46.1271379 119.9349 45.2858736 119.9349 44.4072529 119.9349 43.7527701 120.3924 43.7527701 121.3749 43.7527701 123.3894 47.3464483 123.1434 47.3464483 125.6439 47.3464483 127.2684 45.8267931 128.1849 44.4177126 128.1849 43.805069 128.1849 42.8382874 127.9734 42.2600115 127.7259L42.2600115 126.3384zM49.4155402 121.33395C49.4155402 120.74445 49.4155402 120.06645 49.1376092 119.61795L50.8216322 119.61795C50.5451954 120.06645 50.5451954 120.74445 50.5451954 121.33395L50.5451954 126.25995C50.5451954 126.84945 50.5451954 127.53045 50.8216322 127.97445L49.1376092 127.97445C49.4155402 127.53045 49.4155402 126.84945 49.4155402 126.25995L49.4155402 121.33395zM54.3616667 127.9737C54.6381034 127.5297 54.6381034 126.8487 54.6381034 126.2577L54.6381034 120.2712 52.9675287 120.2712C52.6791379 120.2712 52.3892529 120.3132 52.0754598 120.5622L52.3264943 119.6187 58.6441954 119.6187C58.4305172 120.1827 57.6639655 120.2712 57.1499425 120.2712L55.7677586 120.2712 55.7677586 126.2577C55.7677586 126.8487 55.7677586 127.5297 56.0456897 127.9737L54.3616667 127.9737zM61.1669425 127.9737C61.4418851 127.5297 61.4418851 126.8487 61.4418851 126.2577L61.4418851 125.0682C61.4418851 124.1502 61.0653333 123.2727 60.5632644 122.1987 60.0597011 121.1262 59.4186667 120.1047 58.9046437 119.6187L59.9849885 119.6187C60.4377471 119.6187 60.5244138 119.7372 60.7515402 120.1167 61.2401609 120.9282 61.8184368 122.4207 62.0590115 123.3522 62.1068276 123.5502 62.1576322 123.7422 62.2592414 123.7422 62.3324598 123.7422 62.4206207 123.5232 62.5446437 123.2847L63.4008506 121.7007C63.6892414 121.1772 63.9656782 120.5352 63.9656782 120.1437 63.9656782 119.9472 63.9163678 119.7762 63.7774023 119.6187L65.3613103 119.6187 63.9283218 121.9377C63.0511954 123.3402 62.5730345 123.9807 62.5730345 125.7102L62.5730345 126.2577C62.5730345 126.8487 62.5730345 127.5297 62.847977 127.9737L61.1669425 127.9737zM73.4434253 119.9856C71.6338851 119.9856 70.8568736 121.7136 70.8568736 123.5991 70.8568736 125.3301 71.4202069 127.6086 73.4434253 127.6086 75.2514713 127.6086 76.029977 125.8806 76.029977 123.9936 76.029977 122.2641 75.4666437 119.9856 73.4434253 119.9856M73.3448046 128.1846C70.705954 128.1846 69.547908 126.2991 69.547908 123.9681 69.547908 121.4796 70.930092 119.4096 73.5450345 119.4096 76.1808966 119.4096 77.335954 121.2951 77.335954 123.6261 77.335954 126.1146 75.9567586 128.1846 73.3448046 128.1846M80.1463448 126.25815C80.1463448 126.84915 80.1463448 127.53015 80.4227816 127.97415L78.7402529 127.97415C79.0151954 127.53015 79.0151954 126.84915 79.0151954 126.25815L79.0151954 121.33365C79.0151954 120.74415 79.0405977 120.06315 78.7641609 119.61765L82.6581839 119.61765C82.971977 119.61765 83.2349655 119.61765 83.2349655 119.73765L83.2349655 120.75765 83.1722069 120.75765C82.8210575 120.15615 82.032092 120.14415 81.4403678 120.14415L80.1463448 120.14415 80.1463448 123.50715C81.1131264 123.50715 82.1292184 123.50715 83.096 123.41565 82.6581839 124.16115 81.2401379 124.16115 80.4601379 124.16115L80.1463448 124.16115 80.1463448 126.25815zM88.014931 126.3384C88.392977 126.8889 88.930908 127.6599 90.2503333 127.6599 91.2051609 127.6599 91.9224023 127.0704 91.9224023 126.0219 91.9224023 123.8229 88.3302184 124.0959 88.3302184 121.6749 88.3302184 120.1569 89.5226322 119.4084 90.8540115 119.4084 91.5055057 119.4084 92.1480345 119.4894 92.7875747 119.4894L92.7875747 120.7059C92.2227471 120.0894 91.8835517 119.9349 91.0422874 119.9349 90.1621724 119.9349 89.5106782 120.3924 89.5106782 121.3749 89.5106782 123.3894 93.1028621 123.1434 93.1028621 125.6439 93.1028621 127.2684 91.5832069 128.1849 90.1756207 128.1849 89.5614828 128.1849 88.5947011 127.9734 88.014931 127.7259L88.014931 126.3384zM101.588425 119.6184C101.314977 120.0774 101.314977 120.7569 101.314977 121.3464L101.314977 126.2724C101.314977 126.8619 101.314977 127.5429 101.588425 127.9749L100.095667 128.0514 100.146471 127.1889C100.146471 127.1484 100.122563 127.1364 100.083713 127.1364 100.05831 127.1364 100.007506 127.2144 99.9312989 127.2804 99.4426782 127.7124 98.6761264 128.1849 97.5076207 128.1849 96.0507241 128.1849 95.0839425 127.5699 95.0465862 125.9589L95.0465862 121.3464C95.0465862 120.7569 95.0465862 120.0774 94.7716437 119.6184L96.4511839 119.6184C96.1777356 120.0774 96.1777356 120.7569 96.1777356 121.3464L96.1777356 125.1729C96.2121034 126.5739 96.7664713 127.4244 98.1875057 127.4244 99.642908 127.4244 100.095667 126.4689 100.133023 124.9089 100.146471 124.4109 100.183828 123.9009 100.183828 123.4044L100.183828 121.3464C100.183828 120.7569 100.183828 120.0774 99.9058966 119.6184L101.588425 119.6184zM104.68631 123.3894C104.874586 123.4164 105.064356 123.4284 105.252632 123.4284 106.471943 123.4284 107.136885 122.7489 107.136885 121.5039 107.136885 120.1944 106.421138 120.0369 105.303437 120.0114L104.711713 120.0114C104.699759 120.2094 104.68631 120.4314 104.68631 120.6399L104.68631 123.3894zM108.595276 126.7569C108.956885 127.2669 109.134701 127.4769 109.648724 127.9734L108.61769 127.9734C108.079759 127.9734 107.839184 127.6734 107.564241 127.2534L106.031138 124.9764C105.502172 124.1904 105.415506 123.9684 104.68631 123.9009L104.68631 126.2574C104.68631 126.8484 104.68631 127.5294 104.964241 127.9734L103.21746 127.9734C103.582057 127.3719 103.558149 126.7449 103.558149 126.1794L103.558149 121.3344C103.558149 120.7449 103.558149 120.0639 103.280218 119.6184 104.336655 119.6184 105.342287 119.4894 106.318034 119.4894 107.601598 119.4894 108.268034 120.2214 108.268034 121.2429 108.268034 122.4474 107.311713 123.2334 106.40769 123.6114L108.595276 126.7569zM111.806276 123.3894C111.993057 123.4164 112.182828 123.4284 112.371103 123.4284 113.58892 123.4284 114.255356 122.7489 114.255356 121.5039 114.255356 120.1944 113.539609 120.0369 112.420414 120.0114L111.82869 120.0114C111.816736 120.2094 111.806276 120.4314 111.806276 120.6399L111.806276 123.3894zM115.710759 126.7569C116.075356 127.2669 116.251678 127.4769 116.765701 127.9734L115.737655 127.9734C115.196736 127.9734 114.957655 127.6734 114.681218 127.2534L113.148115 124.9764C112.620644 124.1904 112.533977 123.9684 111.806276 123.9009L111.806276 126.2574C111.806276 126.8484 111.806276 127.5294 112.081218 127.9734L110.335931 127.9734C110.700529 127.3719 110.675126 126.7449 110.675126 126.1794L110.675126 121.3344C110.675126 120.7449 110.675126 120.0639 110.397195 119.6184 111.453632 119.6184 112.45777 119.4894 113.436506 119.4894 114.720069 119.4894 115.386506 120.2214 115.386506 121.2429 115.386506 122.4474 114.430184 123.2334 113.526161 123.6114L115.710759 126.7569zM118.948655 127.45035L120.392103 127.45035C121.172103 127.45035 121.976011 127.25535 122.566241 126.70185L122.339115 127.90935C121.99992 127.93485 121.587506 127.97535 121.134747 127.97535L117.505207 127.97535C117.780149 127.52985 117.817506 126.84885 117.817506 126.25935L117.817506 121.33335C117.817506 120.74535 117.817506 120.06585 117.542563 119.61885L121.923713 119.61885 121.976011 120.62535C121.535207 120.23385 120.856816 120.13935 120.117161 120.13935L118.948655 120.13935 118.948655 123.27135C119.915437 123.27135 120.933023 123.27135 121.899805 123.17985 121.461989 123.92985 120.040954 123.92985 119.263943 123.92985L118.948655 123.92985 118.948655 127.45035zM125.338529 127.9737C125.61646 127.5297 125.61646 126.8487 125.61646 126.2577L125.61646 125.0682C125.61646 124.1502 125.238414 123.2727 124.733356 122.1987 124.231287 121.1262 123.593241 120.1047 123.079218 119.6187L124.158069 119.6187C124.610828 119.6187 124.697494 119.7372 124.924621 120.1167 125.414736 120.9282 125.990023 122.4207 126.229103 123.3522 126.279908 123.5502 126.330713 123.7422 126.430828 123.7422 126.507034 123.7422 126.595195 123.5232 126.719218 123.2847L127.573931 121.7007C127.863816 121.1772 128.140253 120.5352 128.140253 120.1437 128.140253 119.9472 128.087954 119.7762 127.950483 119.6187L129.534391 119.6187 128.102897 121.9377C127.222782 123.3402 126.744621 123.9807 126.744621 125.7102L126.744621 126.2577C126.744621 126.8487 126.744621 127.5297 127.021057 127.9737L125.338529 127.9737z"/>
    <path stroke="#FFFFFF" stroke-width="1.616" d="M0.914183908,112.5231 L129.626138,112.5231"/>
    <g fill="#FFFFFF" transform="translate(0 24.75)">
      <path d="M28.4702989 32.0877L28.1251264 32.0877 28.1251264 32.4207 28.1251264 33.2742 28.1251264 33.6102 28.4702989 33.6102 33.2713333 33.6102 33.2713333 38.5512C33.2713333 41.2977 33.1024828 43.4637 32.2851264 45.1062 31.3721379 46.9962 29.5909885 47.8722 26.6697241 47.8722 21.4532874 47.8722 17.8342069 45.6792 15.6077701 41.1672 13.8669655 37.6422 12.9823678 32.6727 12.9823678 26.3982 12.9823678 23.8527 13.0735172 20.0202 13.8624828 16.1502 14.7425977 11.9007 16.1023678 8.7462 18.0105287 6.5112 20.369954 3.6717 23.6035172 2.2332 27.6245517 2.2332 31.3646667 2.2332 34.0946667 3.1872 35.969954 5.1477 37.8930575 7.1562 39.0406437 10.3362 39.4769655 14.8692L39.5053563 15.1737 39.8221379 15.1737 40.7754713 15.1737 41.1221379 15.1737 41.1221379 14.8392 41.1221379 4.5267 41.1221379 4.3362 40.9547816 4.2387C36.7977701 1.8207 32.2597241.6462 27.0776552.6462 23.3270805.6462 19.7916782 1.2207 16.5685747 2.3562 13.3170805 3.5022 10.472023 5.1897 8.10662069 7.3722 3.08891954 11.9982.435126437 18.5082.435126437 26.2032.435126437 33.0432 2.94845977 38.8962 7.70167816 43.1337 12.3488046 47.2707 18.6709885 49.4607 25.9883448 49.4607 27.6634023 49.4607 31.0777701 49.3062 35.1361609 48.2652 37.5478851 47.6352 39.6801839 46.8402 41.938 45.9957L42.2144368 45.8937 42.4385747 45.8127 42.4385747 45.5817 42.4385747 32.4207 42.4385747 32.0877 42.091908 32.0877 28.4702989 32.0877zM82.9419425 34.8639C82.9419425 30.0954 81.6852759 26.4954 79.0972299 23.8539 76.6855057 21.3909 73.3025172 19.9944 70.0435517 18.7779 65.7894138 17.2554 63.1296437 15.9819 61.4082644 14.6454 59.5897586 13.2294 58.7440115 11.6574 58.7440115 9.6879 58.7440115 7.6524 59.4358506 5.7954 60.6999885 4.4574L60.7014828 4.4544 60.7044713 4.4514C62.0044713 3.0009 63.947 2.1984 66.1659655 2.1984 69.7566552 2.1984 72.5359655 3.3534 74.4187241 5.6244 76.2387241 7.8219 77.3384943 10.9209 77.6851609 14.8434L77.7105632 15.1509 78.0273448 15.1509 78.9836667 15.1509 79.3303333 15.1509 79.3303333 14.8134 79.3303333 4.4964 79.3303333 4.3029 79.1584943 4.2054C77.4386092 3.2469 75.658954 2.4864 73.7044713 1.8774 71.0133218 1.0374 68.225046.6114 65.4188391.6114 61.2513678.6114 57.4201034 1.9509 54.6198736 4.3794 51.6881494 6.9234 50.0743563 10.6299 50.0743563 14.8134 50.0743563 18.2409 51.0411379 20.9364 53.027 23.0574 54.8171149 25.0299 57.5052759 26.6574 61.7414828 28.3374 70.6307931 31.8624 73.9345862 34.9839 73.9345862 39.8589 73.9345862 42.0294 73.052977 43.9869 71.380908 45.5319 69.7521724 47.0394 67.5122874 47.8719 65.0766552 47.8719 60.9286092 47.8719 57.6726322 46.4544 55.3983793 43.6614 53.2571149 41.0349 51.9974598 37.2474 51.6537816 32.4084L51.6313678 32.0964 51.3101034 32.0964 50.3552759 32.0964 50.0056207 32.0964 50.0056207 32.4324 50.0056207 45.5769 50.0056207 45.7629 50.1699885 45.8604C51.6433218 46.7409 54.179069 47.6679 56.9494138 48.3309 59.0817126 48.8484 62.2853908 49.4619 65.4188391 49.4619 70.1780345 49.4619 74.3260805 48.2784 77.4191839 46.0419 81.0337816 43.4454 82.9419425 39.5829 82.9419425 34.8639"/>
    </g>
    <path fill="#FFFFFF" d="M91.1038506,56.82885 L98.2164943,40.78935 L105.332126,56.82885 L91.1038506,56.82885 Z M127.90431,72.67335 L124.857529,72.67335 L104.466954,26.69535 L115.945805,0.81585 L114.278218,0.81585 L89.4317816,56.82885 L89.4258046,56.82885 L89.4258046,56.84985 L70.8746552,98.67735 L72.5437356,98.67735 L90.420977,58.35735 L106.012011,58.35735 L112.362586,72.67335 L106.527529,72.67335 L106.040402,72.67335 L106.040402,73.00635 L106.040402,73.87485 L106.040402,74.21085 L106.527529,74.21085 L127.90431,74.21085 L128.014885,74.21085 L128.014885,73.87485 L128.014885,73.00635 L128.014885,72.67335 L127.90431,72.67335 Z"/>
    <path fill="#FFFFFF" d="M80.877931 94.71795L84.4805747 94.71795C84.748046 94.71795 84.895977 94.70445 84.895977 94.47795 84.895977 93.86595 84.346092 92.08695 82.6501149 92.08695 81.3545977 92.08695 80.6851724 92.38545 80.0590805 93.19395 79.4195402 94.03095 79.3298851 94.58145 79.3298851 95.40495 79.3298851 96.33195 79.4778161 97.07895 80.1636782 97.87245 80.6851724 98.46645 81.3545977 98.67795 82.307931 98.67795 83.9456322 98.67795 84.7047126 97.66245 85.02 97.09245 85.1201149 96.90195 85.0917241 96.84045 85.02 96.79395L84.7928736 96.65745C84.7331034 96.63045 84.6733333 96.63045 84.6150575 96.73845 84.2997701 97.21245 83.7364368 97.60245 82.8129885 97.60245 81.9642529 97.60245 80.877931 96.70245 80.877931 95.18145L80.877931 94.71795zM80.9227586 94.17795C81.1155172 93.18045 81.5637931 92.64045 82.2914943 92.64045 83.0655172 92.64045 83.2164368 93.52095 83.2164368 93.96945 83.2164368 94.08945 83.0386207 94.17795 82.7248276 94.17795L80.9227586 94.17795zM86.2841379 98.12745C86.2975862 98.18595 86.343908 98.23095 86.4021839 98.29095 86.568046 98.42595 87.2195402 98.67795 88.0114943 98.67795 89.4833333 98.67795 90.4964368 97.78245 90.4964368 96.52545 90.4964368 96.01845 90.3783908 95.65995 90.0466667 95.33145 89.6626437 94.91295 89.2472414 94.73445 88.5613793 94.55445 87.6663218 94.31295 87.2195402 94.13595 87.2195402 93.52095 87.2195402 92.99895 87.6947126 92.67045 88.2475862 92.67045 88.7391954 92.67045 89.0081609 92.94045 89.185977 93.13395L89.9017241 93.93945C89.9286207 93.99945 89.9749425 94.01745 90.0197701 93.99945L90.3021839 93.86595C90.332069 93.83445 90.332069 93.76245 90.3186207 93.70395L90.1228736 92.68545C90.1049425 92.59395 90.066092 92.53845 89.8404598 92.41695 89.5729885 92.26695 89.1262069 92.08695 88.3955172 92.08695 87.7873563 92.08695 87.3689655 92.22195 86.8474713 92.58045 86.325977 92.95695 86.0883908 93.49095 86.0883908 94.15095 86.0883908 95.21295 86.8922989 95.71845 87.9054023 96.01845 88.9483908 96.31695 89.3354023 96.58395 89.3354023 97.18545 89.3354023 97.73595 88.8572414 98.09745 88.2774713 98.09745 87.5482759 98.09745 87.2658621 97.73595 86.9968966 97.28895L86.5037931 96.45195C86.473908 96.39045 86.432069 96.39045 86.3722989 96.40695L86.0883908 96.49695C86.0450575 96.51195 86.0286207 96.55545 86.0450575 96.61545L86.2841379 98.12745zM92.43 93.08895L92.43 95.03145C92.43 95.59995 92.3866667 96.79395 92.3866667 97.33395 92.3866667 97.96245 93.0575862 98.67795 93.9496552 98.67795 94.9926437 98.67795 95.6157471 98.23095 95.8264368 98.07945 95.8847126 98.02095 95.916092 97.96245 95.8847126 97.87245L95.7965517 97.69095C95.7651724 97.61595 95.7218391 97.61595 95.6157471 97.66245 95.408046 97.76745 95.0822989 97.84395 94.7535632 97.84395 94.4562069 97.84395 93.9645977 97.60245 93.9645977 96.43695L93.9645977 95.09145C93.9645977 94.43595 93.9795402 93.71745 94.0109195 93.08895L95.8114943 93.08895C95.8981609 93.08895 95.9444828 93.05745 95.9594253 92.99895L96.1073563 92.37045C96.1237931 92.31045 96.093908 92.25645 96.0042529 92.25645L94.0393103 92.25645 94.0990805 90.77295C94.0990805 90.65445 94.0393103 90.56295 93.9212644 90.56295 93.8286207 90.56295 93.7404598 90.59295 93.6836782 90.70995 93.351954 91.33845 92.057931 92.44395 91.6410345 92.59395 91.4467816 92.67045 91.3601149 92.76195 91.3601149 92.88045 91.3601149 93.02895 91.4467816 93.08895 91.5693103 93.08895L92.43 93.08895zM98.2516092 98.67795C98.7895402 98.67795 99.2348276 98.29095 99.2348276 97.69095 99.2348276 97.06395 98.7596552 96.64395 98.2217241 96.64395 97.4178161 96.64395 97.1488506 97.27245 97.1488506 97.63095 97.1488506 98.34945 97.7166667 98.67795 98.2516092 98.67795L98.2516092 98.67795zM110.190839 92.2185C109.443713 92.2185 108.760839 92.487 108.167621 93.024 107.601299 93.5325 107.063368 94.7265 107.063368 95.568 107.063368 96.8055 107.779115 98.3595 109.682793 98.3595 110.547966 98.3595 111.081414 98.0625 111.381759 97.7925L111.440034 97.821C111.142678 100.05 109.475092 101.691 108.196011 102.1695 108.106356 102.2325 108.045092 102.3195 108.045092 102.411 108.045092 102.5895 108.167621 102.648 108.284172 102.648 108.373828 102.648 108.583023 102.5895 108.730954 102.5595 109.596126 102.2925 110.190839 101.961 111.023138 101.2725 112.719115 99.8415 113.464747 97.6575 113.464747 95.655 113.464747 95.208 113.330264 94.1565 112.645897 93.3075 112.021299 92.529 111.351874 92.2185 110.190839 92.2185L110.190839 92.2185zM110.279 97.6155C109.416816 97.6155 108.730954 96.537 108.730954 95.1015 108.730954 93.594 109.357046 92.7555 110.249115 92.7555 111.351874 92.7555 111.64923 94.0125 111.64923 95.355 111.64923 96 111.616356 96.747 111.410149 97.0455 111.230839 97.3455 110.876701 97.6155 110.279 97.6155L110.279 97.6155zM116.517506 97.1355C116.517506 97.3155 116.548885 97.3155 116.814862 97.401 118.123828 97.701 118.899345 98.571 118.899345 100.0035 118.899345 101.034 118.155207 102.0225 117.022563 102.0225 116.18877 102.0225 115.951184 101.661 115.861529 101.4555 115.78831 101.2725 115.594057 100.737 115.02923 100.737 114.730379 100.7685 114.461414 100.9905 114.461414 101.4555 114.461414 101.874 114.970954 102.648 116.753598 102.648 119.018885 102.648 120.746241 101.1555 120.746241 99.3315 120.746241 98.0295 119.555322 97.0155 118.452563 96.777 119.346126 96.237 120.238195 95.46 120.238195 94.236 120.209805 93.366 119.522448 92.2185 117.826471 92.2185 116.010954 92.2185 115.118885 93.624 114.906701 94.6395 114.881299 94.7895 114.906701 94.848 114.970954 94.8795L115.233943 94.968C115.293713 94.968 115.356471 94.9395 115.416241 94.7895 115.712103 93.981 116.278425 93.294 117.230264 93.294 118.096931 93.294 118.601989 94.0425 118.601989 94.8165 118.601989 95.9685 117.799575 96.687 116.725207 96.897 116.575782 96.927 116.517506 96.9555 116.517506 97.1355L116.517506 97.1355zM124.096356 93.966L127.297046 93.966C127.743828 93.966 127.833483 93.9075 127.920149 93.669L128.45808 91.842C128.484977 91.7265 128.42969 91.695 128.305667 91.6335 128.160724 91.5585 128.112908 91.605 128.071069 91.695 127.802103 92.205 127.684057 92.4405 127.147621 92.4405L123.827391 92.4405C123.649575 92.4405 123.616701 92.5005 123.589805 92.679L123.053368 97.1355C123.038425 97.254 123.083253 97.374 123.202793 97.374L123.470264 97.374C123.948425 97.374 124.65969 97.464 125.29923 97.746 126.074747 98.088 126.50808 98.811 126.50808 99.7635 126.50808 101.199 125.285782 101.9175 124.332448 101.9175 123.887161 101.9175 123.486701 101.781 123.262563 101.661 122.993598 101.514 122.754517 101.3625 122.458655 101.337 122.24946 101.337 122.071644 101.514 122.071644 101.814 122.071644 102.2325 122.900954 102.648 123.948425 102.648 126.224172 102.648 128.011299 101.034 127.982908 98.976 127.982908 97.506 127.147621 96.5235 125.822218 96.1185 125.257391 95.9535 124.153138 95.835 123.827391 95.8635L124.096356 93.966zM105.677897 98.39505C105.643529 98.37405 105.58077 98.35905 105.483644 98.35005 105.189276 98.31405 104.978586 98.26455 104.856057 98.20755 104.729046 98.15055 104.640885 98.04705 104.585598 97.89705 104.53031 97.75155 104.500425 97.51905 104.500425 97.21755L104.500425 93.92505C104.500425 93.65355 104.524333 93.44205 104.569161 93.29055 104.619966 93.13755 104.697667 93.02955 104.806747 92.95755 104.917322 92.88855 105.154908 92.83455 105.521 92.78955 105.656977 92.77755 105.727207 92.71155 105.727207 92.59005 105.727207 92.45955 105.697322 92.39205 105.631575 92.39205 105.444793 92.39205 105.169851 92.40855 104.809736 92.43555 104.422724 92.46555 104.117897 92.47905 103.896747 92.47905 103.674103 92.47905 103.367782 92.46555 102.976287 92.43555 102.628126 92.40855 102.359161 92.39205 102.175368 92.39205 102.103644 92.39205 102.069276 92.45955 102.069276 92.59005 102.069276 92.66505 102.079736 92.71155 102.109621 92.73855 102.135023 92.76555 102.193299 92.78205 102.282954 92.78955 102.589276 92.82855 102.804448 92.87505 102.929966 92.93355 103.056977 92.99055 103.149621 93.09705 103.204908 93.24705 103.266172 93.40155 103.293069 93.62505 103.293069 93.92505L103.293069 97.21755C103.293069 97.48605 103.270655 97.69605 103.227322 97.84005 103.182494 97.98855 103.107782 98.09955 103.000195 98.17155 102.895598 98.24205 102.668471 98.30205 102.318816 98.35005 102.218701 98.35905 102.15146 98.37555 102.118586 98.39955 102.085713 98.42055 102.069276 98.47305 102.069276 98.55105 102.069276 98.68305 102.103644 98.74755 102.175368 98.74755 102.359161 98.74755 102.628126 98.73255 102.976287 98.70405 103.367782 98.67705 103.674103 98.66205 103.896747 98.66205 104.117897 98.66205 104.422724 98.67705 104.809736 98.70405 105.169851 98.73255 105.444793 98.74755 105.631575 98.74755 105.697322 98.74755 105.727207 98.68305 105.727207 98.55105 105.727207 98.46555 105.709276 98.41455 105.677897 98.39505"/>
  </g>
</svg>
